<?xml version="1.0" standalone="no"?>
<!DOCTYPE svg PUBLIC "-//W3C//DTD SVG 20010904//EN"
 "http://www.w3.org/TR/2001/REC-SVG-20010904/DTD/svg10.dtd">
<svg version="1.0" xmlns="http://www.w3.org/2000/svg"
 width="574.000000pt" height="574.000000pt" viewBox="0 0 574.000000 574.000000"
 preserveAspectRatio="xMidYMid meet">
<metadata>
Created by potrace 1.11, written by Peter Selinger 2001-2013
</metadata>
<g transform="translate(0.000000,574.000000) scale(0.100000,-0.100000)"
fill="#000000" stroke="none">
<path d="M1487 5732 c-6 -13 -1 -5647 5 -5657 4 -7 231 -10 650 -10 l643 0 3
2647 c2 2514 1 2647 -15 2652 -10 3 -259 75 -553 161 -675 196 -670 195 -702
205 -15 5 -29 6 -31 2z"/>
<path d="M4025 5663 c-393 -116 -731 -216 -775 -228 -87 -24 -238 -69 -250
-75 -13 -7 -15 -312 -15 -2651 l0 -2643 640 -1 c352 -1 646 1 653 3 9 3 12
580 12 2838 0 1559 -3 2833 -7 2833 -5 -1 -120 -35 -258 -76z"/>
</g>
</svg>
